<?xml version="1.0" encoding="UTF-8"?>
<svg version="1.1" xmlns="http://www.w3.org/2000/svg" width="1049" height="1016">
<path d="M0 0 C0.95507446 0.42249023 0.95507446 0.42249023 1.92944336 0.85351562 C16.41016304 7.87313837 27.48017672 20.2511782 38.5625 31.5625 C40.81559041 33.8509425 43.07095164 36.13708157 45.32914734 38.42048645 C46.72054145 39.82853784 48.10882167 41.23967649 49.49324036 42.65458679 C50.13138168 43.30248672 50.76952301 43.95038666 51.42700195 44.61791992 C51.97403275 45.17621994 52.52106354 45.73451996 53.08467102 46.30973816 C55.0094714 48.14558704 56.97956059 49.88217625 58.99259949 51.61958313 C63.23939359 55.31565247 67.22664651 59.22421931 71.19140625 63.21875 C71.94050262 63.96930664 72.689599 64.71986328 73.46139526 65.49316406 C75.07425243 67.10980248 76.68595424 68.72759425 78.29660034 70.34643555 C80.85100992 72.91370378 83.40861337 75.47775198 85.96704102 78.04101562 C92.31799685 84.40528353 98.66348317 90.77499585 105.00915527 97.14453125 C110.38123735 102.5363943 115.75539616 107.92617133 121.1322937 113.31323242 C123.64243095 115.82981523 126.14951836 118.349409 128.65649414 120.86914062 C130.20704455 122.42332621 131.75773702 123.97737008 133.30859375 125.53125 C134.34063431 126.57104004 134.34063431 126.57104004 135.39352417 127.63183594 C139.22415651 131.46288009 143.169583 135.0802073 147.2693634 138.62020874 C150.65412133 141.61901409 153.82356491 144.82633042 157.0078125 148.03515625 C157.73740173 148.76620575 158.46699097 149.49725525 159.21868896 150.25045776 C160.78898485 151.82453386 162.3581254 153.39976323 163.9262085 154.9760437 C166.41340587 157.4761045 168.90380092 159.97294072 171.39501953 162.46899414 C177.57902554 168.66630926 183.75755998 174.86907014 189.9362793 181.07165527 C195.16743969 186.32259997 200.40067907 191.57145611 205.63665771 196.81759644 C208.0803188 199.26770098 210.52092848 201.72081693 212.96142578 204.17407227 C214.47153015 205.68781195 215.98177667 207.20140985 217.4921875 208.71484375 C218.16151306 209.38933563 218.83083862 210.06382751 219.52044678 210.75875854 C237.92904413 229.16938705 258.83877479 242.34310228 285.67504883 242.56445312 C287.01152466 242.56348633 287.01152466 242.56348633 288.375 242.5625 C289.29627686 242.56314453 290.21755371 242.56378906 291.16674805 242.56445312 C298.36095975 242.50905977 305.1930054 241.84138849 312.25 240.375 C307.96885724 245.55439541 303.43121056 250.15351881 298.48706055 254.69555664 C290.0466866 262.54812556 281.89945415 270.65903846 273.80561256 278.86648369 C270.53867261 282.17658546 267.26142818 285.4764141 263.98500347 288.77712345 C257.92936258 294.87797893 251.87808186 300.98303111 245.84301758 307.10424805 C241.60041605 311.4066193 237.34537271 315.69634515 233.08215904 319.97828865 C231.47862457 321.59345171 229.87959835 323.21310527 228.28550148 324.83758354 C209.38799926 344.08661818 188.23824665 358.08366161 160.26489258 358.61645508 C134.0052599 358.72446861 113.33498944 348.95005435 94.75488281 330.95898438 C92.20684442 328.43016119 89.67472196 325.88648965 87.1484375 323.3359375 C85.74040244 321.92211534 84.33236443 320.50829611 82.9241581 319.09464455 C80.48892047 316.64860014 78.057057 314.19920619 75.625 311.75 C72.7090771 308.81357046 69.79251286 305.87779763 66.87197876 302.94595337 C65.0642326 301.13076181 63.25873559 299.31332649 61.4559021 297.49325562 C60.62789093 296.66194122 59.79987976 295.83062683 58.94677734 294.97412109 C58.2308139 294.25292084 57.51485046 293.53172058 56.77719116 292.78866577 C54.72662126 290.83021068 52.64511598 288.97340432 50.49868774 287.12368774 C45.99208132 283.20598386 41.78092848 279.03207486 37.57421875 274.796875 C36.74709381 273.96828979 35.91996887 273.13970459 35.06777954 272.28601074 C33.28467697 270.49912327 31.50272985 268.71108217 29.72183228 266.92199707 C26.89857684 264.08589979 24.07220737 261.25292769 21.24487305 258.42089844 C14.7345746 251.89861788 8.22932735 245.37130703 1.72413635 238.84393311 C-4.24376125 232.85578996 -10.2127527 226.86874773 -16.18582058 220.88576126 C-19.43898157 217.62686221 -22.68821284 214.36407563 -25.93676758 211.10058594 C-27.6491021 209.38461673 -29.3615784 207.66878897 -31.07421875 205.953125 C-31.8370517 205.18512573 -32.59988464 204.41712646 -33.38583374 203.62585449 C-37.43044164 199.58085225 -41.56986933 195.72489404 -45.90255928 191.99072456 C-48.61772339 189.61611124 -51.1868555 187.10875541 -53.74780273 184.57006836 C-54.29046783 184.03558075 -54.83313293 183.50109314 -55.39224243 182.95040894 C-57.15897088 181.20817038 -58.9218272 179.46209905 -60.68359375 177.71484375 C-61.29387987 177.10988131 -61.90416599 176.50491886 -62.53294563 175.88162422 C-65.76254542 172.67859803 -68.98856152 169.4720065 -72.2121582 166.26293945 C-74.85367071 163.63474332 -77.50224796 161.01400117 -80.1574707 158.3996582 C-83.39411784 155.21280311 -86.61786967 152.01340406 -89.8332386 148.80508614 C-91.04677439 147.59818269 -92.26449453 146.39546893 -93.48678398 145.19743156 C-111.40809301 127.61164609 -123.43112837 106.29112913 -124.171875 80.74511719 C-124.29102611 61.24157059 -119.2598629 43.26051326 -107.75 27.375 C-107.10546875 26.47265625 -106.4609375 25.5703125 -105.796875 24.640625 C-92.84472235 7.65891375 -73.76178037 -2.71054553 -53.08984375 -7.203125 C-34.56602533 -9.54297575 -16.99214075 -7.62967268 0 0 Z " fill="#1A4B81" transform="translate(370.75,101.625)"/>
<path d="M0 0 C4.07710409 1.62013003 6.80913562 4.537381 9.83203125 7.6015625 C10.38686691 8.15685638 10.94170258 8.71215027 11.51335144 9.28427124 C12.68648789 10.46042442 13.85719729 11.63900276 15.02563477 12.81982422 C16.79075734 14.60303454 18.56358023 16.37828024 20.33789062 18.15234375 C21.48224026 19.30161611 22.62613459 20.45134203 23.76953125 21.6015625 C24.54959282 22.3832933 24.54959282 22.3832933 25.34541321 23.18081665 C28.01010598 25.87903406 30.55216836 28.62826429 33.00512695 31.52050781 C38.06163402 37.34945687 43.63485402 42.67769317 49.13236618 48.08526993 C51.89981853 50.81012925 54.65751932 53.5447727 57.41591835 56.27879143 C62.53222553 61.34968467 67.6521935 66.41672575 72.7890625 71.46679688 C76.38088872 74.99868155 79.95990432 78.54313047 83.53120804 82.09576035 C84.8812154 83.43415329 86.23570683 84.76804121 87.59504318 86.09695816 C105.98905935 104.08969774 117.66669334 124.50334001 118.3515625 150.82324219 C118.57341214 176.75191851 109.26374399 197.35447396 91.26315308 215.77761841 C86.49894089 220.59198101 81.68711451 225.35860112 76.875 230.125 C74.0360616 232.93710171 71.20062823 235.75267265 68.3671875 238.5703125 C67.73158905 239.19761261 67.0959906 239.82491272 66.44113159 240.47122192 C63.46455213 243.43171151 60.59750161 246.42849476 57.87490845 249.62509155 C53.60206018 254.53013271 49.02388669 259.10112871 44.41210938 263.68554688 C43.46655737 264.62917497 42.52123629 265.5730345 41.5761261 266.5171051 C39.55546836 268.53462455 37.53327355 270.55058551 35.50984192 272.56532288 C32.30369543 275.75783598 29.10146587 278.95425918 25.89978027 282.15124512 C18.5260369 289.51299583 11.14726757 296.86970217 3.76844025 304.22635651 C-2.99974524 310.97430844 -9.76683789 317.72334699 -16.52987623 324.47645807 C-19.7060856 327.64771608 -22.8847092 330.81652727 -26.06526947 333.98342133 C-28.05022791 335.96086716 -30.03306443 337.94043058 -32.01535988 339.92054558 C-33.35888373 341.26133578 -34.70492641 342.59960058 -36.05107117 343.9377594 C-40.34291836 348.22923566 -44.46735257 352.59195243 -48.42439651 357.19365883 C-50.75707285 359.86794164 -53.22755034 362.39048231 -55.72900391 364.90600586 C-56.25534424 365.43891739 -56.78168457 365.97182892 -57.32397461 366.52088928 C-59.03867563 368.25503682 -60.75713683 369.9853813 -62.4765625 371.71484375 C-63.07174053 372.31409731 -63.66691856 372.91335087 -64.28013229 373.53076363 C-67.43038956 376.7017586 -70.58382774 379.86955174 -73.73974609 383.03491211 C-76.96541297 386.27162579 -80.17922204 389.51985138 -83.39049721 392.77083492 C-85.89249091 395.29920077 -88.40354763 397.81842353 -90.91697311 400.33542061 C-92.10425925 401.52751848 -93.28822272 402.72293679 -94.46849442 403.9219799 C-104.06099453 413.65751465 -114.21798229 422.66288015 -127.0625 427.875 C-128.06410156 428.29676514 -128.06410156 428.29676514 -129.0859375 428.72705078 C-150.53068818 437.4966417 -174.65179611 437.31265132 -196.01171875 428.375 C-217.61598133 418.43421513 -234.3937344 402.12389816 -243.0078125 379.81640625 C-250.98857701 357.16234637 -250.22052598 333.15480957 -240.375 311.25 C-240.09333984 310.61336426 -239.81167969 309.97672852 -239.52148438 309.32080078 C-232.60327198 295.04747427 -220.46792053 284.10967195 -209.3125 273.1875 C-207.09538078 271.00574617 -204.88057264 268.82171519 -202.66850281 266.63484192 C-201.30497275 265.28795478 -199.93835554 263.94418214 -198.56794739 262.60429382 C-195.52435071 259.60800125 -192.59585658 256.57705189 -189.82426453 253.32624817 C-185.79469079 248.69756164 -181.49855761 244.3726567 -177.14648438 240.04882812 C-175.8597155 238.76424965 -175.8597155 238.76424965 -174.54695129 237.45372009 C-172.21606221 235.12759938 -169.88299632 232.80368839 -167.54907417 230.4806118 C-165.09321564 228.03481476 -162.64066187 225.58570883 -160.18786621 223.13684082 C-153.43336841 216.39432826 -146.6738416 209.65686488 -139.91425323 202.91945648 C-133.71337141 196.73881664 -127.51358811 190.55708509 -121.31786013 184.37127829 C-118.88298537 181.94054447 -116.44705516 179.51088859 -114.0085907 177.08375549 C-111.28796975 174.37515248 -108.57044536 171.66347672 -105.85351562 168.95117188 C-105.05746414 168.16028671 -104.26141266 167.36940155 -103.4412384 166.55455017 C-99.34648387 162.46018137 -95.4421979 158.27575971 -91.66329193 153.88913727 C-88.98860177 150.85127196 -86.13158968 148.00837878 -83.2578125 145.16015625 C-82.62429871 144.52810272 -81.99078491 143.89604919 -81.33807373 143.24484253 C-79.97680967 141.88735254 -78.61439283 140.5310177 -77.25091553 139.17575073 C-75.08688959 137.02461663 -72.92611522 134.87026211 -70.76611328 132.71508789 C-65.40356327 127.36582947 -60.03555954 122.02205475 -54.66772461 116.67810059 C-50.12137014 112.15155022 -45.57711925 107.62290739 -41.0355835 103.09152222 C-38.91787095 100.98024075 -36.79714452 98.87201992 -34.67626953 96.76391602 C-28.57236872 90.68314493 -22.51080756 84.63440155 -17 78 C-16.3503125 77.25492187 -15.700625 76.50984375 -15.03125 75.7421875 C-2.53077899 60.49926622 2.17610859 42.13817193 2.1875 22.75 C2.19974609 21.66847656 2.21199219 20.58695312 2.22460938 19.47265625 C2.23679409 12.73857013 1.62035206 6.54016321 0 0 Z " fill="#1A4B81" transform="translate(343,350)"/>
<path d="M0 0 C15.26384805 14.36874585 24.95173692 34.86669903 25.70703125 55.875 C26.01470126 71.69528228 24.34919592 85.03417703 17.84375 99.5078125 C17.56208984 100.14444824 17.28042969 100.78108398 16.99023438 101.43701172 C10.07202198 115.71033823 -2.06332947 126.64814055 -13.21875 137.5703125 C-15.43586922 139.75206633 -17.65067736 141.93609731 -19.86274719 144.12297058 C-21.22627725 145.46985772 -22.59289446 146.81363036 -23.96330261 148.15351868 C-27.00689929 151.14981125 -29.93539342 154.18076061 -32.70698547 157.43156433 C-36.73655921 162.06025086 -41.03269239 166.3851558 -45.38476562 170.70898438 C-46.24261154 171.56537003 -47.10045746 172.42175568 -47.98429871 173.30409241 C-50.31518779 175.63021312 -52.64825368 177.95412411 -54.98217583 180.2772007 C-57.43803436 182.72299774 -59.89058813 185.17210367 -62.34338379 187.62097168 C-69.09788159 194.36348424 -75.8574084 201.10094762 -82.61699677 207.83835602 C-88.81787859 214.01899586 -95.01766189 220.20072741 -101.21338987 226.38653421 C-103.64826463 228.81726803 -106.08419484 231.24692391 -108.5226593 233.67405701 C-111.24328025 236.38266002 -113.96080464 239.09433578 -116.67773438 241.80664062 C-117.8718116 242.99296837 -117.8718116 242.99296837 -119.0900116 244.20326233 C-123.18476613 248.29763113 -127.0890521 252.48205279 -130.86795807 256.86867523 C-133.54264823 259.90654054 -136.39966032 262.74943372 -139.2734375 265.59765625 C-139.90695129 266.22970978 -140.54046509 266.86176331 -141.19317627 267.51296997 C-142.55444033 268.87045996 -143.91685717 270.2267948 -145.28033447 271.58206177 C-147.44436041 273.73319587 -149.60513478 275.88755039 -151.76513672 278.04272461 C-157.12768673 283.39198303 -162.49569046 288.73575775 -167.86352539 294.07971191 C-172.40987986 298.60626228 -176.95413075 303.13490511 -181.4956665 307.66629028 C-183.61337905 309.77757175 -185.73410548 311.88579258 -187.85498047 313.99389648 C-193.95888128 320.07466757 -200.02044244 326.12341095 -205.53125 332.7578125 C-206.1809375 333.50289062 -206.830625 334.24796875 -207.5 335.015625 C-220.00047101 350.25854628 -224.70735859 368.61964057 -224.71875 388.0078125 C-224.73099609 389.08933594 -224.74324219 390.17085937 -224.75585938 391.28515625 C-224.76804409 398.01924237 -224.15160206 404.21764929 -222.53125 410.7578125 C-226.60835409 409.13768247 -229.34038562 406.2204315 -232.36328125 403.15625 C-232.91811691 402.60095612 -233.47295258 402.04566223 -234.04460144 401.47354126 C-235.21773789 400.29738808 -236.38844729 399.11880974 -237.55688477 397.93798828 C-239.32200734 396.15477796 -241.09483023 394.37953226 -242.86914062 392.60546875 C-244.01349026 391.45619639 -245.15738459 390.30647047 -246.30078125 389.15625 C-246.8208223 388.63509613 -247.34086334 388.11394226 -247.87666321 387.57699585 C-250.54135598 384.87877844 -253.08341836 382.12954821 -255.53637695 379.23730469 C-260.59288402 373.40835563 -266.16610402 368.08011933 -271.66361618 362.67254257 C-274.43106853 359.94768325 -277.18876932 357.2130398 -279.94716835 354.47902107 C-285.06347553 349.40812783 -290.1834435 344.34108675 -295.3203125 339.29101562 C-298.91213872 335.75913095 -302.49115432 332.21468203 -306.06245804 328.66205215 C-307.4124654 327.32365921 -308.76695683 325.98977129 -310.12629318 324.66085434 C-328.52030935 306.66811476 -340.19794334 286.25447249 -340.8828125 259.93457031 C-341.10466214 234.00589399 -331.79499399 213.40333854 -313.79440308 194.98019409 C-309.03019089 190.16583149 -304.21836451 185.39921138 -299.40625 180.6328125 C-296.5673116 177.82071079 -293.73187823 175.00513985 -290.8984375 172.1875 C-290.26283905 171.56019989 -289.6272406 170.93289978 -288.97238159 170.28659058 C-285.99580213 167.32610099 -283.12875161 164.32931774 -280.40615845 161.13272095 C-276.13331018 156.22767979 -271.55513669 151.65668379 -266.94335938 147.07226562 C-265.99780737 146.12863753 -265.05248629 145.184778 -264.1073761 144.2407074 C-262.08671836 142.22318795 -260.06452355 140.20722699 -258.04109192 138.19248962 C-254.83494543 134.99997652 -251.63271587 131.80355332 -248.43103027 128.60656738 C-241.0572869 121.24481667 -233.67851757 113.88811033 -226.29969025 106.53145599 C-219.53150476 99.78350406 -212.76441211 93.03446551 -206.00137377 86.28135443 C-202.8251644 83.11009642 -199.6465408 79.94128523 -196.46598053 76.77439117 C-194.48102209 74.79694534 -192.49818557 72.81738192 -190.51589012 70.83726692 C-189.17236627 69.49647672 -187.82632359 68.15821192 -186.48017883 66.8200531 C-182.18833164 62.52857684 -178.06389743 58.16586007 -174.10685349 53.56415367 C-171.77417715 50.88987086 -169.30369966 48.36733019 -166.80224609 45.85180664 C-166.27590576 45.31889511 -165.74956543 44.78598358 -165.20727539 44.23692322 C-163.49257437 42.50277568 -161.77411317 40.7724312 -160.0546875 39.04296875 C-159.16192045 38.14408841 -159.16192045 38.14408841 -158.25111771 37.22704887 C-155.10086044 34.0560539 -151.94742226 30.88826076 -148.79150391 27.72290039 C-145.56583703 24.48618671 -142.35202796 21.23796112 -139.14075279 17.98697758 C-136.63875909 15.45861173 -134.12770237 12.93938897 -131.61427689 10.42239189 C-130.42699075 9.23029402 -129.24302728 8.03487571 -128.06275558 6.8358326 C-118.47025547 -2.89970215 -108.31326771 -11.90506765 -95.46875 -17.1171875 C-94.80101562 -17.39836426 -94.13328125 -17.67954102 -93.4453125 -17.96923828 C-60.63826699 -31.38531258 -25.97005068 -23.00433502 0 0 Z " fill="#1A4B81" transform="translate(929.53125,254.2421875)"/>
<path d="M0 0 C6.41701172 5.21078585 12.15586383 11.04750324 17.95751953 16.92016602 C19.1342361 18.10317286 20.31148261 19.2856528 21.48922729 20.46763611 C24.564606 23.55620305 27.63434048 26.65031164 30.70239258 29.74615479 C35.61662814 34.70380402 40.53777222 39.65457128 45.46224594 44.60204887 C47.16619439 46.31609596 48.86662009 48.03357825 50.56668091 49.7514801 C51.62538811 50.81702446 52.68421001 51.88245488 53.74316406 52.94775391 C55.11022995 54.32719933 55.11022995 54.32719933 56.50491333 55.73451233 C58.68088467 57.87855151 60.9443982 59.8882136 63.25839233 61.88218689 C67.78146428 65.80541409 71.99914023 69.99606508 76.21728516 74.24243164 C77.05416367 75.08077042 77.89104218 75.91910919 78.75328064 76.78285217 C80.55766392 78.59102076 82.36089173 80.400343 84.16307068 82.21070862 C87.01993421 85.08041213 89.87990359 87.94698551 92.74084473 90.81262207 C99.32854787 97.41230839 105.91120049 104.01702456 112.4937973 110.62180328 C118.532609 116.68085931 124.57251381 122.73881523 130.61649466 128.79271555 C133.90851052 132.09047033 137.19659682 135.39211247 140.48400879 138.69445801 C142.21656632 140.43065017 143.9492656 142.16670091 145.68212891 143.90258789 C146.45431259 144.6799379 147.22649628 145.4572879 148.02207947 146.25819397 C152.1070685 150.34357669 156.28481814 154.2441107 160.6614933 158.01503372 C163.03712553 160.08413219 165.28830421 162.26203171 167.52954102 164.4753418 C168.44086288 165.37382843 169.35218475 166.27231506 170.29112244 167.19802856 C171.25970218 168.15843662 172.22791914 169.11921068 173.19580078 170.08032227 C173.69576128 170.57620724 174.19572178 171.07209221 174.7108326 171.583004 C177.35662013 174.20808379 179.99922497 176.83632141 182.6394043 179.46704102 C185.33132226 182.14792071 188.03472023 184.81690343 190.74090481 187.48336983 C192.85239707 189.56842143 194.95467297 191.6625939 197.0547657 193.75912094 C198.04589917 194.74545984 199.04033552 195.72849378 200.03845024 196.70776749 C217.23748898 213.60209799 229.25379505 235.13666363 229.69140625 259.73706055 C229.78292954 284.79829124 221.72521023 305.48770371 204.44970703 323.57250977 C203.90958984 324.18739258 203.36947266 324.80227539 202.81298828 325.43579102 C189.69626774 339.8080163 168.90940799 348.00416585 149.82861328 348.88891602 C133.86022638 349.34067091 120.20443428 347.47630819 105.63720703 340.88500977 C104.99211182 340.5949707 104.3470166 340.30493164 103.68237305 340.00610352 C91.0436235 333.84660216 81.37092349 323.87529299 71.69970703 313.94750977 C69.93925723 312.15160814 68.17649611 310.35806242 66.41082764 308.56729126 C65.32541201 307.46532811 64.24311398 306.36028003 63.16485596 305.25131226 C60.45597564 302.48969123 57.67936467 299.87798427 54.74053955 297.36135864 C50.51667237 293.68088743 46.54527663 289.7957677 42.60009766 285.82055664 C41.86075485 285.07975357 41.12141205 284.3389505 40.35966492 283.57569885 C38.76808839 281.98034159 37.17766722 280.38383102 35.58830261 278.78627014 C33.06749912 276.25260565 30.54349988 273.72216342 28.01867676 271.19250488 C21.75119585 264.91171336 15.48918546 258.62547676 9.22698975 252.3394165 C3.9253685 247.01801264 -1.37833059 241.69869605 -6.68476868 236.38209534 C-9.16166784 233.89875166 -11.63551638 231.41239679 -14.10925293 228.92590332 C-15.63958032 227.39194069 -17.17004982 225.8581198 -18.70068359 224.32446289 C-19.37935989 223.64062027 -20.05803619 222.95677765 -20.75727844 222.25221252 C-23.92526124 219.08388472 -27.13476454 216.02310777 -30.52734375 213.09545898 C-34.80317892 209.40251308 -38.78783694 205.46133129 -42.76708984 201.45336914 C-43.54544693 200.67355179 -44.32380402 199.89373444 -45.12574768 199.09028625 C-46.80244683 197.4098044 -48.47799058 195.72816909 -50.15248108 194.04548645 C-52.80770875 191.37740683 -55.46612493 188.71254088 -58.12536621 186.04846191 C-64.24845399 179.91302272 -70.36686173 173.77292611 -76.4850235 167.63257599 C-82.54621633 161.54951522 -88.60942411 155.46847629 -94.67604065 149.39082336 C-97.28589228 146.77452325 -99.89269624 144.15521278 -102.49938965 141.5357666 C-104.11060911 139.92091216 -105.72197051 138.30619934 -107.33349609 136.69165039 C-108.04957535 135.97040482 -108.7656546 135.24915924 -109.50343323 134.50605774 C-113.48804984 130.52102864 -117.57267497 126.71891433 -121.85074615 123.04987335 C-124.02194086 121.16252081 -126.05258144 119.1421035 -128.11279297 117.13500977 C-143.19336881 103.64065303 -163.38146863 98.37143047 -183.23779297 98.38500977 C-184.20861816 98.38436523 -185.17944336 98.3837207 -186.1796875 98.38305664 C-193.15964345 98.43438842 -199.73728317 98.96268467 -206.55029297 100.57250977 C-202.30200055 95.5007022 -197.86671915 90.73509521 -193.17529297 86.07250977 C-192.24330078 85.1347168 -192.24330078 85.1347168 -191.29248047 84.17797852 C-190.35662109 83.24405273 -190.35662109 83.24405273 -189.40185547 82.29125977 C-188.57935303 81.47044922 -188.57935303 81.47044922 -187.74023438 80.63305664 C-185.81929394 78.82561659 -183.85650142 77.10610892 -181.85791016 75.38607788 C-177.88051525 71.91082299 -174.13665498 68.26318455 -170.43847656 64.49487305 C-169.44633148 63.49089981 -169.44633148 63.49089981 -168.43414307 62.46664429 C-167.01127755 61.02670892 -165.58947558 59.58572196 -164.16865158 58.14377213 C-161.12813219 55.06075415 -158.07791485 51.98740552 -155.02829933 48.91338921 C-149.36874904 43.20837165 -143.71301753 37.49970632 -138.07421875 31.77416992 C-134.13380975 27.77390307 -130.18089649 23.78636095 -126.21980667 19.80657578 C-124.72512566 18.30026066 -123.2349555 16.78945385 -121.74970627 15.27383804 C-89.25670465 -17.86645547 -39.45558791 -31.10370785 0 0 Z " fill="#1A4B81" transform="translate(572.55029296875,572.427490234375)"/>
<path d="M0 0 C2.79192366 1.27467043 4.84081631 2.59153969 7.00512695 4.76220703 C7.56283279 5.31683624 8.12053864 5.87146545 8.69514465 6.44290161 C9.28687973 7.0418222 9.87861481 7.6407428 10.48828125 8.2578125 C11.42041695 9.19063553 11.42041695 9.19063553 12.37138367 10.14230347 C13.68575416 11.45969214 14.99769625 12.77950751 16.30737305 14.1015625 C18.28976904 16.10206146 20.27989518 18.09459513 22.27148438 20.0859375 C23.55255301 21.37192812 24.83316624 22.6583726 26.11328125 23.9453125 C26.69894363 24.53208771 27.28460602 25.11886292 27.88801575 25.72341919 C30.81434551 28.68266642 33.62882385 31.69316582 36.3425293 34.84912109 C40.47191065 39.61740841 44.92576623 44.0325955 49.40625 48.46875 C50.28978149 49.34849487 51.17331299 50.22823975 52.08361816 51.13464355 C54.88665133 53.92554506 57.69279916 56.71329232 60.5 59.5 C64.2010055 63.17398738 67.89831822 66.85165602 71.59375 70.53125 C72.43248657 71.36168823 73.27122314 72.19212646 74.13537598 73.04772949 C78.40707616 77.30174147 82.4937264 81.63428909 86.42352295 86.20535278 C88.70256189 88.7997901 91.13331631 91.17399215 93.6171875 93.57421875 C94.64758876 94.58221908 95.67752185 95.59069817 96.70703125 96.59960938 C98.28388448 98.13968398 99.86349223 99.67642524 101.45166016 101.20483398 C119.72876138 118.83019802 131.76461227 139.88866504 132.41943359 165.68017578 C132.56025755 189.12165525 125.75350018 210.37536097 109.33203125 227.6640625 C108.56246094 228.43492187 107.79289063 229.20578125 107 230 C106.24074219 230.77085937 105.48148438 231.54171875 104.69921875 232.3359375 C88.92331962 247.46634158 67.62213051 254.80403674 46 255.375 C11.89790378 254.4744854 -9.16466155 236.03031416 -32.04711914 213.08325195 C-34.32259584 210.80238023 -36.60341717 208.52695025 -38.88476562 206.25195312 C-40.35709181 204.77896659 -41.829108 203.30567014 -43.30078125 201.83203125 C-43.97071609 201.16412064 -44.64065094 200.49621002 -45.33088684 199.80805969 C-49.1886892 195.93129948 -52.8637713 191.9509162 -56.41899109 187.79432678 C-58.95838593 184.9123037 -61.73572844 182.28829742 -64.5 179.625 C-79.55454829 164.78070478 -88.88722844 145.70674134 -89.24145508 124.34033203 C-89.33916088 96.86546051 -78.44011488 77.61597655 -59.52514648 58.39575195 C-57.97646506 56.84059877 -56.42502553 55.28818821 -54.87109375 53.73828125 C-54.03715591 52.90338669 -53.20321808 52.06849213 -52.3440094 51.20829773 C-50.59653373 49.46014719 -48.84781727 47.71323615 -47.09790039 45.9675293 C-44.43715972 43.31216041 -41.7818207 40.65147383 -39.12695312 37.99023438 C-37.4169873 36.28092919 -35.70671138 34.57193414 -33.99609375 32.86328125 C-33.21254013 32.0777034 -32.42898651 31.29212555 -31.62168884 30.48274231 C-27.45502366 26.33356218 -23.20104006 22.35951716 -18.74623108 18.5216217 C-16.57582809 16.6303873 -14.5273543 14.64084926 -12.5 12.59765625 C-11.75878906 11.85322266 -11.01757812 11.10878906 -10.25390625 10.34179688 C-9.51011719 9.58962891 -8.76632812 8.83746094 -8 8.0625 C-7.22527344 7.28326172 -6.45054687 6.50402344 -5.65234375 5.70117188 C-3.76589243 3.8030758 -1.88183755 1.90266851 0 0 Z " fill="#1A4B81" transform="translate(823,530)"/>
<path d="M0 0 C9.51314555 8.08408036 18.23908613 17.0838471 27.04711914 25.91674805 C29.32259584 28.19761977 31.60341717 30.47304975 33.88476562 32.74804688 C35.35709181 34.22103341 36.829108 35.69432986 38.30078125 37.16796875 C39.30568352 38.16983467 39.30568352 38.16983467 40.33088684 39.19194031 C44.1886892 43.06870052 47.8637713 47.0490838 51.41899109 51.20567322 C53.95838593 54.0876963 56.73572844 56.71170258 59.5 59.375 C74.55454829 74.21929522 83.88722844 93.29325866 84.24145508 114.65966797 C84.33916088 142.13453949 73.44011488 161.38402345 54.52514648 180.60424805 C52.97646506 182.15940123 51.42502553 183.71181179 49.87109375 185.26171875 C49.03715591 186.09661331 48.20321808 186.93150787 47.3440094 187.79170227 C45.59653373 189.53985281 43.84781727 191.28676385 42.09790039 193.0324707 C39.43715972 195.68783959 36.7818207 198.34852617 34.12695312 201.00976562 C32.4169873 202.71907081 30.70671138 204.42806586 28.99609375 206.13671875 C28.21254013 206.9222966 27.42898651 207.70787445 26.62168884 208.51725769 C22.45502366 212.66643782 18.20104006 216.64048284 13.74623108 220.4783783 C11.57582809 222.3696127 9.5273543 224.35915074 7.5 226.40234375 C6.75878906 227.14677734 6.01757812 227.89121094 5.25390625 228.65820312 C4.51011719 229.41037109 3.76632813 230.16253906 3 230.9375 C1.83791016 232.10635742 1.83791016 232.10635742 0.65234375 233.29882812 C-1.23410757 235.1969242 -3.11816245 237.09733149 -5 239 C-7.79192366 237.72532957 -9.84081631 236.40846031 -12.00512695 234.23779297 C-12.56283279 233.68316376 -13.12053864 233.12853455 -13.69514465 232.55709839 C-14.28687973 231.9581778 -14.87861481 231.3592572 -15.48828125 230.7421875 C-16.42041695 229.80936447 -16.42041695 229.80936447 -17.37138367 228.85769653 C-18.68575416 227.54030786 -19.99769625 226.22049249 -21.30737305 224.8984375 C-23.28976904 222.89793854 -25.27989518 220.90540487 -27.27148438 218.9140625 C-28.55255301 217.62807188 -29.83316624 216.3416274 -31.11328125 215.0546875 C-31.69894363 214.46791229 -32.28460602 213.88113708 -32.88801575 213.27658081 C-35.81434551 210.31733358 -38.62882385 207.30683418 -41.3425293 204.15087891 C-45.47191065 199.38259159 -49.92576623 194.9674045 -54.40625 190.53125 C-55.28978149 189.65150513 -56.17331299 188.77176025 -57.08361816 187.86535645 C-59.88665133 185.07445494 -62.69279916 182.28670768 -65.5 179.5 C-69.2010055 175.82601262 -72.89831822 172.14834398 -76.59375 168.46875 C-77.43248657 167.63831177 -78.27122314 166.80787354 -79.13537598 165.95227051 C-83.40707616 161.69825853 -87.4937264 157.36571091 -91.42352295 152.79464722 C-93.70256189 150.2002099 -96.13331631 147.82600785 -98.6171875 145.42578125 C-99.64758876 144.41778092 -100.67752185 143.40930183 -101.70703125 142.40039062 C-103.28388448 140.86031602 -104.86349223 139.32357476 -106.45166016 137.79516602 C-124.72876138 120.16980198 -136.76461227 99.11133496 -137.41943359 73.31982422 C-137.56025755 49.87834475 -130.75350018 28.62463903 -114.33203125 11.3359375 C-113.17767578 10.17964844 -113.17767578 10.17964844 -112 9 C-111.24074219 8.22914063 -110.48148438 7.45828125 -109.69921875 6.6640625 C-80.82055306 -21.03298839 -32.14914887 -23.96558825 0 0 Z " fill="#1A4B81" transform="translate(232,246)"/>
<path d="M0 0 C3.46837504 2.86827496 6.74648505 5.89208124 10 9 C10.61488281 9.54011719 11.22976563 10.08023438 11.86328125 10.63671875 C26.64664727 24.12866429 34.10392531 45.80025352 35.31640625 65.30859375 C35.89880026 80.50725231 32.80652014 95.36784028 26 109 C25.52046875 109.97066406 25.0409375 110.94132812 24.546875 111.94140625 C21.53741699 117.54396521 18.03026906 122.33015331 13.67578125 126.94921875 C13.15759827 127.50437164 12.63941528 128.05952454 12.10552979 128.63150024 C6.24291016 134.87197172 0.20826922 140.94254132 -5.85595703 146.98632812 C-7.76582994 148.89078505 -9.67022149 150.80060819 -11.57421875 152.7109375 C-16.99235768 158.13158489 -22.39751241 163.4813219 -28.24169922 168.44677734 C-30.88033222 170.77765531 -33.29071599 173.3129894 -35.73120117 175.84814453 C-52.11765634 192.82560001 -71.68085954 204.77698464 -95.89672852 205.24194336 C-126.03929723 205.35740532 -145.55224283 191.4005017 -166.17578125 170.95703125 C-167.71170369 169.42618079 -169.24444625 167.89227123 -170.7746582 166.35571289 C-172.32584727 164.79910611 -173.88239392 163.24799829 -175.43945312 161.69726562 C-183.68770397 153.45401188 -183.68770397 153.45401188 -187.296875 149.19921875 C-193.09362587 142.42308019 -199.61645965 136.28053556 -205.9375 130 C-207.30296745 128.63955682 -208.66820386 127.27888169 -210.03320312 125.91796875 C-213.35280886 122.6092969 -216.67553273 119.30378678 -220 116 C-218.62850763 112.92513447 -217.06548894 110.81685531 -214.68701172 108.4440918 C-214.012258 107.76626144 -213.33750427 107.08843109 -212.64230347 106.39006042 C-211.9121402 105.66708267 -211.18197693 104.94410492 -210.4296875 104.19921875 C-209.67462921 103.44461868 -208.91957092 102.69001862 -208.14163208 101.91255188 C-206.54177249 100.31571261 -204.93948395 98.72130373 -203.33496094 97.12915039 C-200.89988651 94.71220127 -198.47277849 92.28747835 -196.046875 89.86132812 C-194.4874476 88.30682161 -192.92756589 86.75277068 -191.3671875 85.19921875 C-190.29016068 84.12386116 -190.29016068 84.12386116 -189.19137573 83.02677917 C-185.89209466 79.75784254 -182.5619521 76.57856892 -179.04150391 73.5480957 C-174.4618039 69.59321859 -170.22314366 65.33052077 -165.96875 61.03125 C-165.13339722 60.1921106 -164.29804443 59.35297119 -163.43737793 58.48840332 C-160.78912914 55.828031 -158.14415594 53.16443987 -155.5 50.5 C-152.01337399 46.98662727 -148.52335074 43.47668029 -145.03125 39.96875 C-144.24455933 39.17376099 -143.45786865 38.37877197 -142.64733887 37.55969238 C-138.48319533 33.37731529 -134.22968844 29.38745083 -129.75631714 25.53814697 C-127.48752539 23.55118512 -125.38736894 21.43419912 -123.30078125 19.2578125 C-89.97475082 -15.07598807 -42.47964574 -31.14343529 0 0 Z " fill="#1A4B81" transform="translate(767,110)"/>
<path d="M0 0 C11.22029368 9.02410069 21.66340391 19.65410737 31.05151367 30.55810547 C35.10205945 35.21396549 39.43228312 39.55834852 43.80859375 43.90625 C44.64213882 44.73838013 45.4756839 45.57051025 46.33448792 46.42785645 C48.97063262 49.05844935 51.61025105 51.68552441 54.25 54.3125 C56.04905979 56.10653855 57.8478902 57.90080715 59.64648438 59.6953125 C64.03250812 64.07037125 68.42138142 68.44255512 72.8125 72.8125 C71.50399364 75.70043985 70.10803519 77.76600175 67.86669922 80.0012207 C67.2720285 80.59896805 66.67735779 81.19671539 66.06466675 81.81257629 C65.10066452 82.76580025 65.10066452 82.76580025 64.1171875 83.73828125 C63.45091339 84.40409714 62.78463928 85.06991302 62.09817505 85.75590515 C60.68662939 87.16443182 59.27265619 88.57052933 57.85644531 89.97436523 C55.71108764 92.10161149 53.57369566 94.23660443 51.4375 96.37304688 C50.06036382 97.74526149 48.6827736 99.11702063 47.3046875 100.48828125 C46.67416473 101.11769119 46.04364197 101.74710114 45.39401245 102.39558411 C42.31086992 105.44666908 39.18222243 108.39254201 35.89501953 111.22338867 C31.38199578 115.12790756 27.19522266 119.32175876 23 123.5625 C22.18684326 124.37944336 21.37368652 125.19638672 20.53588867 126.03808594 C17.95896703 128.62712671 15.38532375 131.21938737 12.8125 133.8125 C9.41962847 137.23212719 6.02335343 140.64832149 2.625 144.0625 C1.86018311 144.83561523 1.09536621 145.60873047 0.30737305 146.40527344 C-3.78140571 150.51244385 -7.96502742 154.41859094 -12.35635376 158.19952393 C-15.03237115 160.55670979 -17.50774607 163.08149519 -19.98046875 165.6484375 C-21.03404259 166.72441151 -22.08809453 167.79991755 -23.14257812 168.875 C-24.75506463 170.52428346 -26.36423422 172.17633254 -27.96508789 173.83691406 C-45.90448407 192.40959554 -66.90057617 204.50660813 -93.12426758 205.28271484 C-117.95363173 205.51931427 -140.04790676 197.05409357 -158.1875 179.8125 C-175.40267814 161.52838627 -182.85272002 139.04760328 -182.45703125 114.1484375 C-182.0405364 102.76971619 -179.21184022 92.27152853 -174.5 81.9375 C-174.20996094 81.29659424 -173.91992188 80.65568848 -173.62109375 79.99536133 C-166.57576902 65.64815432 -154.63119427 54.84913149 -143.4309082 43.7746582 C-140.62120134 40.99624365 -137.82242978 38.2071771 -135.02539062 35.41601562 C-133.22458125 33.62437368 -131.42316954 31.8333369 -129.62109375 30.04296875 C-128.79379257 29.21991745 -127.96649139 28.39686615 -127.11412048 27.5488739 C-122.82775752 23.31456043 -118.47585038 19.22118582 -113.89042664 15.31144714 C-111.27357864 13.00804971 -108.95072465 10.47713947 -106.5625 7.9375 C-77.69535284 -21.68403946 -32.87215261 -23.61893742 0 0 Z " fill="#1A4B81" transform="translate(429.1875,716.1875)"/>
<path d="M0 0 C18.88241544 15.25885333 30.17109488 35.50690993 33.25 59.625 C33.35604677 60.99843494 33.43970921 62.37379708 33.5 63.75 C33.53996094 64.49894531 33.57992187 65.24789062 33.62109375 66.01953125 C34.27335447 89.76949504 25.5182326 111.44602297 9.5 128.75 C-6.37377969 145.0484962 -27.93289757 154.38546021 -50.62255859 155.22460938 C-75.74380401 155.49289953 -97.80873476 145.74559338 -115.87890625 128.4765625 C-130.0883736 113.59986799 -138.02797724 94.18307779 -139.5 73.75 C-139.55414063 73.05003906 -139.60828125 72.35007812 -139.6640625 71.62890625 C-140.58415386 47.4974191 -131.00626816 25.99749437 -115.2578125 8.21875 C-85.23524142 -23.6740796 -34.45849921 -25.66314801 0 0 Z " fill="#1A4B81" transform="translate(576.5,861.25)"/>
<path d="M0 0 C15.65856554 14.79225486 25.55929848 34.78970068 26.515625 56.421875 C27.18401846 81.436167 21.06410924 103.51963409 3.56640625 122.13671875 C2.78523437 122.93078125 2.0040625 123.72484375 1.19921875 124.54296875 C0.43867188 125.31640625 -0.321875 126.08984375 -1.10546875 126.88671875 C-17.27302294 142.36516408 -39.45747529 149.97064783 -61.68408203 149.62524414 C-86.42135269 148.6637147 -107.45671743 138.75458384 -124.48828125 120.79296875 C-140.11185767 102.73781604 -147.58027496 79.61593175 -146.02392578 55.89990234 C-144.36776481 38.40692858 -138.01169044 22.09299621 -126.80078125 8.54296875 C-126.135625 7.70378906 -125.47046875 6.86460937 -124.78515625 6 C-110.44526564 -11.12820268 -89.0041799 -21.10064023 -66.97265625 -23.203125 C-41.73107202 -25.04934624 -18.94537453 -16.62014028 0 0 Z " fill="#1A4B81" transform="translate(145.80078125,443.45703125)"/>
<path d="M0 0 C2.02994605 0.02144738 4.05634157 0.00006498 6.08618164 -0.02539062 C18.57383638 -0.05375196 30.38274321 2.42264958 41.47094727 8.33398438 C42.13811768 8.67945313 42.80528809 9.02492188 43.49267578 9.38085938 C48.8432907 12.22583636 53.53709552 15.52358509 58.09594727 19.52148438 C58.81782227 20.08996094 59.53969727 20.6584375 60.28344727 21.24414062 C76.65164441 34.62855183 86.21873517 55.61172008 88.64624023 76.29785156 C90.86179961 99.51426179 84.47413664 121.54080992 70.20141602 140.00976562 C56.08111846 156.85457328 36.36948213 169.34013219 14.09594727 171.52148438 C-10.00983304 173.13319536 -32.25788855 168.98381897 -51.49780273 153.42382812 C-54.0466623 151.193576 -56.4897876 148.89655689 -58.90405273 146.52148438 C-59.67749023 145.7609375 -60.45092773 145.00039062 -61.24780273 144.21679688 C-76.22103206 128.57695118 -83.79797236 107.31239005 -84.21655273 85.83398438 C-83.46643447 60.67376744 -74.00581855 38.61039549 -55.78295898 21.16210938 C-49.79520375 15.93371603 -43.19141776 11.96773422 -36.15405273 8.33398438 C-35.54762939 8.01308838 -34.94120605 7.69219238 -34.31640625 7.36157227 C-23.35535764 1.89727297 -12.16821872 -0.15212102 0 0 Z " fill="#1A4B81" transform="translate(522.904052734375,-0.521484375)"/>
<path d="M0 0 C16.24981118 13.96244773 28.67311746 33.50236103 30.4909668 55.2565918 C30.62468549 59.15550762 30.65550498 63.03643686 30.625 66.9375 C30.62129395 67.62264679 30.61758789 68.30779358 30.61376953 69.01370239 C30.45753021 89.27953974 24.70105025 107.21533914 11.1875 122.625 C10.61902344 123.346875 10.05054688 124.06875 9.46484375 124.8125 C-3.91956745 141.18069714 -24.9027357 150.7477879 -45.58886719 153.17529297 C-68.74822315 155.38540761 -90.79451252 149.03544011 -109.23046875 134.80078125 C-125.77085183 120.8628185 -138.71124146 101.70012661 -140.8125 79.625 C-142.47153053 53.86731468 -137.95653519 30.45032593 -120.5 10.5 C-118.95609304 8.85732458 -117.39345876 7.23204719 -115.8125 5.625 C-115.05195312 4.8515625 -114.29140625 4.078125 -113.5078125 3.28125 C-82.39457967 -26.50584504 -32.97454249 -25.92165423 0 0 Z " fill="#1A4B81" transform="translate(1018.8125,441.375)"/>
</svg>
